<mxfile host="drawio-plugin" modified="2022-12-25T16:02:07.368Z" agent="5.0 (Windows NT 6.2; Win64; x64) AppleWebKit/537.36 (KHTML, like Gecko) Chrome/97.0.4692.45 Safari/537.36" etag="K3r_T6drMcn33bbXv1PT" version="20.5.3" type="embed"><diagram id="nplhZZoTZ9FXqsf-cTwm" name="Страница 1"><mxGraphModel dx="730" dy="567" grid="1" gridSize="10" guides="1" tooltips="1" connect="1" arrows="1" fold="1" page="1" pageScale="1" pageWidth="827" pageHeight="1169" math="0" shadow="0"><root><mxCell id="0"/><mxCell id="1" parent="0"/><mxCell id="DtVJJxLxXrQN9yaaPmi0-1" value="Fighter" style="swimlane;fontStyle=3;align=center;verticalAlign=top;childLayout=stackLayout;horizontal=1;startSize=26;horizontalStack=0;resizeParent=1;resizeParentMax=0;resizeLast=0;collapsible=1;marginBottom=0;" parent="1" vertex="1"><mxGeometry x="80" y="40" width="180" height="210" as="geometry"/></mxCell><mxCell id="DtVJJxLxXrQN9yaaPmi0-3" value="" style="line;strokeWidth=1;fillColor=none;align=left;verticalAlign=middle;spacingTop=-1;spacingLeft=3;spacingRight=3;rotatable=0;labelPosition=right;points=[];portConstraint=eastwest;strokeColor=inherit;" parent="DtVJJxLxXrQN9yaaPmi0-1" vertex="1"><mxGeometry y="26" width="180" height="8" as="geometry"/></mxCell><mxCell id="DtVJJxLxXrQN9yaaPmi0-2" value="- weapon: Weapon&#10;- armor : Armor&#10;- health : int&#10;- isAlive : boolean" style="text;strokeColor=default;fillColor=none;align=left;verticalAlign=top;spacingLeft=4;spacingRight=4;overflow=hidden;rotatable=0;points=[[0,0.5],[1,0.5]];portConstraint=eastwest;" parent="DtVJJxLxXrQN9yaaPmi0-1" vertex="1"><mxGeometry y="34" width="180" height="66" as="geometry"/></mxCell><mxCell id="DtVJJxLxXrQN9yaaPmi0-4" value="+ attack(fighter : Fighter) : void &#10;- getDamage(damage : int) void&#10;+getter, setter&#10;+ Fighter (weapon : weapon&#10;                armor :Armor&#10;                health : int)" style="text;strokeColor=none;fillColor=none;align=left;verticalAlign=top;spacingLeft=4;spacingRight=4;overflow=hidden;rotatable=0;points=[[0,0.5],[1,0.5]];portConstraint=eastwest;" parent="DtVJJxLxXrQN9yaaPmi0-1" vertex="1"><mxGeometry y="100" width="180" height="110" as="geometry"/></mxCell><mxCell id="DtVJJxLxXrQN9yaaPmi0-5" value="Warrior" style="swimlane;fontStyle=0;childLayout=stackLayout;horizontal=1;startSize=26;fillColor=none;horizontalStack=0;resizeParent=1;resizeParentMax=0;resizeLast=0;collapsible=1;marginBottom=0;" parent="1" vertex="1"><mxGeometry x="360" y="10" width="140" height="56" as="geometry"/></mxCell><mxCell id="DtVJJxLxXrQN9yaaPmi0-91" value="+ Warrior ()" style="text;html=1;align=center;verticalAlign=middle;resizable=0;points=[];autosize=1;strokeColor=none;fillColor=none;" parent="DtVJJxLxXrQN9yaaPmi0-5" vertex="1"><mxGeometry y="26" width="140" height="30" as="geometry"/></mxCell><mxCell id="DtVJJxLxXrQN9yaaPmi0-9" value="Archer" style="swimlane;fontStyle=0;childLayout=stackLayout;horizontal=1;startSize=26;fillColor=none;horizontalStack=0;resizeParent=1;resizeParentMax=0;resizeLast=0;collapsible=1;marginBottom=0;" parent="1" vertex="1"><mxGeometry x="360" y="74" width="140" height="56" as="geometry"/></mxCell><mxCell id="DtVJJxLxXrQN9yaaPmi0-92" value="+ Archer()" style="text;html=1;align=center;verticalAlign=middle;resizable=0;points=[];autosize=1;strokeColor=none;fillColor=none;" parent="DtVJJxLxXrQN9yaaPmi0-9" vertex="1"><mxGeometry y="26" width="140" height="30" as="geometry"/></mxCell><mxCell id="DtVJJxLxXrQN9yaaPmi0-13" value="Extends" style="endArrow=block;endSize=16;endFill=0;html=1;rounded=0;exitX=0;exitY=0.5;exitDx=0;exitDy=0;" parent="1" source="DtVJJxLxXrQN9yaaPmi0-9" target="DtVJJxLxXrQN9yaaPmi0-2" edge="1"><mxGeometry width="160" relative="1" as="geometry"><mxPoint x="330" y="410" as="sourcePoint"/><mxPoint x="490" y="410" as="targetPoint"/></mxGeometry></mxCell><mxCell id="DtVJJxLxXrQN9yaaPmi0-15" value="Extends" style="endArrow=block;endSize=16;endFill=0;html=1;rounded=0;" parent="1" source="DtVJJxLxXrQN9yaaPmi0-5" edge="1"><mxGeometry x="0.6475" y="-12" width="160" relative="1" as="geometry"><mxPoint x="320" y="50" as="sourcePoint"/><mxPoint x="260" y="52.799999999999955" as="targetPoint"/><mxPoint as="offset"/></mxGeometry></mxCell><mxCell id="DtVJJxLxXrQN9yaaPmi0-16" value="Weapon" style="swimlane;fontStyle=3;childLayout=stackLayout;horizontal=1;startSize=26;fillColor=none;horizontalStack=0;resizeParent=1;resizeParentMax=0;resizeLast=0;collapsible=1;marginBottom=0;" parent="1" vertex="1"><mxGeometry x="40" y="260" width="180" height="52" as="geometry"/></mxCell><mxCell id="DtVJJxLxXrQN9yaaPmi0-17" value="- damage: int" style="text;strokeColor=none;fillColor=none;align=left;verticalAlign=top;spacingLeft=4;spacingRight=4;overflow=hidden;rotatable=0;points=[[0,0.5],[1,0.5]];portConstraint=eastwest;" parent="DtVJJxLxXrQN9yaaPmi0-16" vertex="1"><mxGeometry y="26" width="180" height="26" as="geometry"/></mxCell><mxCell id="DtVJJxLxXrQN9yaaPmi0-20" value="Sword" style="swimlane;fontStyle=0;childLayout=stackLayout;horizontal=1;startSize=26;fillColor=none;horizontalStack=0;resizeParent=1;resizeParentMax=0;resizeLast=0;collapsible=1;marginBottom=0;" parent="1" vertex="1"><mxGeometry x="300" y="224" width="140" height="52" as="geometry"/></mxCell><mxCell id="DtVJJxLxXrQN9yaaPmi0-24" value="Bow" style="swimlane;fontStyle=0;childLayout=stackLayout;horizontal=1;startSize=26;fillColor=none;horizontalStack=0;resizeParent=1;resizeParentMax=0;resizeLast=0;collapsible=1;marginBottom=0;" parent="1" vertex="1"><mxGeometry x="300" y="304" width="140" height="52" as="geometry"/></mxCell><mxCell id="DtVJJxLxXrQN9yaaPmi0-28" value="Extends" style="endArrow=block;endSize=16;endFill=0;html=1;rounded=0;exitX=0;exitY=0.5;exitDx=0;exitDy=0;" parent="1" source="DtVJJxLxXrQN9yaaPmi0-24" target="DtVJJxLxXrQN9yaaPmi0-17" edge="1"><mxGeometry width="160" relative="1" as="geometry"><mxPoint x="330" y="410" as="sourcePoint"/><mxPoint x="490" y="410" as="targetPoint"/></mxGeometry></mxCell><mxCell id="DtVJJxLxXrQN9yaaPmi0-30" value="Extends" style="endArrow=block;endSize=16;endFill=0;html=1;rounded=0;exitX=0;exitY=0.5;exitDx=0;exitDy=0;entryX=1.029;entryY=-0.115;entryDx=0;entryDy=0;entryPerimeter=0;" parent="1" source="DtVJJxLxXrQN9yaaPmi0-20" target="DtVJJxLxXrQN9yaaPmi0-17" edge="1"><mxGeometry x="-0.1114" y="-3" width="160" relative="1" as="geometry"><mxPoint x="224.3" y="444" as="sourcePoint"/><mxPoint x="160.0037037037037" y="430" as="targetPoint"/><mxPoint as="offset"/></mxGeometry></mxCell><mxCell id="DtVJJxLxXrQN9yaaPmi0-31" value="Armor" style="swimlane;fontStyle=3;childLayout=stackLayout;horizontal=1;startSize=26;fillColor=none;horizontalStack=0;resizeParent=1;resizeParentMax=0;resizeLast=0;collapsible=1;marginBottom=0;" parent="1" vertex="1"><mxGeometry x="80" y="400" width="180" height="52" as="geometry"/></mxCell><mxCell id="DtVJJxLxXrQN9yaaPmi0-32" value="- defence : int" style="text;strokeColor=none;fillColor=none;align=left;verticalAlign=top;spacingLeft=4;spacingRight=4;overflow=hidden;rotatable=0;points=[[0,0.5],[1,0.5]];portConstraint=eastwest;" parent="DtVJJxLxXrQN9yaaPmi0-31" vertex="1"><mxGeometry y="26" width="180" height="26" as="geometry"/></mxCell><mxCell id="DtVJJxLxXrQN9yaaPmi0-35" value="LightArmor" style="swimlane;fontStyle=0;childLayout=stackLayout;horizontal=1;startSize=26;fillColor=none;horizontalStack=0;resizeParent=1;resizeParentMax=0;resizeLast=0;collapsible=1;marginBottom=0;" parent="1" vertex="1"><mxGeometry x="380" y="595.01" width="140" height="52" as="geometry"/></mxCell><mxCell id="DtVJJxLxXrQN9yaaPmi0-39" value="HeavyArmor" style="swimlane;fontStyle=0;childLayout=stackLayout;horizontal=1;startSize=26;fillColor=none;horizontalStack=0;resizeParent=1;resizeParentMax=0;resizeLast=0;collapsible=1;marginBottom=0;" parent="1" vertex="1"><mxGeometry x="20" y="595.01" width="140" height="52" as="geometry"/></mxCell><mxCell id="DtVJJxLxXrQN9yaaPmi0-43" value="NoviceSword" style="swimlane;fontStyle=0;childLayout=stackLayout;horizontal=1;startSize=26;fillColor=none;horizontalStack=0;resizeParent=1;resizeParentMax=0;resizeLast=0;collapsible=1;marginBottom=0;" parent="1" vertex="1"><mxGeometry x="496" y="172" width="140" height="52" as="geometry"/></mxCell><mxCell id="DtVJJxLxXrQN9yaaPmi0-47" value="MagicSword" style="swimlane;fontStyle=0;childLayout=stackLayout;horizontal=1;startSize=26;fillColor=none;horizontalStack=0;resizeParent=1;resizeParentMax=0;resizeLast=0;collapsible=1;marginBottom=0;" parent="1" vertex="1"><mxGeometry x="496" y="244" width="140" height="52" as="geometry"/></mxCell><mxCell id="DtVJJxLxXrQN9yaaPmi0-48" value="- magicDamage: int" style="text;strokeColor=none;fillColor=none;align=left;verticalAlign=top;spacingLeft=4;spacingRight=4;overflow=hidden;rotatable=0;points=[[0,0.5],[1,0.5]];portConstraint=eastwest;" parent="DtVJJxLxXrQN9yaaPmi0-47" vertex="1"><mxGeometry y="26" width="140" height="26" as="geometry"/></mxCell><mxCell id="DtVJJxLxXrQN9yaaPmi0-51" value="NoviceBow" style="swimlane;fontStyle=0;childLayout=stackLayout;horizontal=1;startSize=26;fillColor=none;horizontalStack=0;resizeParent=1;resizeParentMax=0;resizeLast=0;collapsible=1;marginBottom=0;" parent="1" vertex="1"><mxGeometry x="406" y="374" width="140" height="52" as="geometry"/></mxCell><mxCell id="DtVJJxLxXrQN9yaaPmi0-55" value="MagicBow" style="swimlane;fontStyle=0;childLayout=stackLayout;horizontal=1;startSize=26;fillColor=none;horizontalStack=0;resizeParent=1;resizeParentMax=0;resizeLast=0;collapsible=1;marginBottom=0;" parent="1" vertex="1"><mxGeometry x="566" y="334" width="140" height="52" as="geometry"/></mxCell><mxCell id="DtVJJxLxXrQN9yaaPmi0-56" value="- MagicDamage: int" style="text;strokeColor=none;fillColor=none;align=left;verticalAlign=top;spacingLeft=4;spacingRight=4;overflow=hidden;rotatable=0;points=[[0,0.5],[1,0.5]];portConstraint=eastwest;" parent="DtVJJxLxXrQN9yaaPmi0-55" vertex="1"><mxGeometry y="26" width="140" height="26" as="geometry"/></mxCell><mxCell id="DtVJJxLxXrQN9yaaPmi0-59" value="FullComposite" style="swimlane;fontStyle=0;childLayout=stackLayout;horizontal=1;startSize=26;fillColor=none;horizontalStack=0;resizeParent=1;resizeParentMax=0;resizeLast=0;collapsible=1;marginBottom=0;" parent="1" vertex="1"><mxGeometry x="10" y="695.01" width="140" height="52" as="geometry"/></mxCell><mxCell id="DtVJJxLxXrQN9yaaPmi0-60" value="+ field: type" style="text;strokeColor=none;fillColor=none;align=left;verticalAlign=top;spacingLeft=4;spacingRight=4;overflow=hidden;rotatable=0;points=[[0,0.5],[1,0.5]];portConstraint=eastwest;" parent="DtVJJxLxXrQN9yaaPmi0-59" vertex="1"><mxGeometry y="26" width="140" height="26" as="geometry"/></mxCell><mxCell id="DtVJJxLxXrQN9yaaPmi0-63" value="SemiComposite" style="swimlane;fontStyle=0;childLayout=stackLayout;horizontal=1;startSize=26;fillColor=none;horizontalStack=0;resizeParent=1;resizeParentMax=0;resizeLast=0;collapsible=1;marginBottom=0;" parent="1" vertex="1"><mxGeometry x="180" y="705.01" width="140" height="52" as="geometry"/></mxCell><mxCell id="DtVJJxLxXrQN9yaaPmi0-64" value="+ field: type" style="text;strokeColor=none;fillColor=none;align=left;verticalAlign=top;spacingLeft=4;spacingRight=4;overflow=hidden;rotatable=0;points=[[0,0.5],[1,0.5]];portConstraint=eastwest;" parent="DtVJJxLxXrQN9yaaPmi0-63" vertex="1"><mxGeometry y="26" width="140" height="26" as="geometry"/></mxCell><mxCell id="DtVJJxLxXrQN9yaaPmi0-67" value="SkinArmor" style="swimlane;fontStyle=0;childLayout=stackLayout;horizontal=1;startSize=26;fillColor=none;horizontalStack=0;resizeParent=1;resizeParentMax=0;resizeLast=0;collapsible=1;marginBottom=0;" parent="1" vertex="1"><mxGeometry x="360" y="695.01" width="140" height="52" as="geometry"/></mxCell><mxCell id="DtVJJxLxXrQN9yaaPmi0-68" value="+ field: type" style="text;strokeColor=none;fillColor=none;align=left;verticalAlign=top;spacingLeft=4;spacingRight=4;overflow=hidden;rotatable=0;points=[[0,0.5],[1,0.5]];portConstraint=eastwest;" parent="DtVJJxLxXrQN9yaaPmi0-67" vertex="1"><mxGeometry y="26" width="140" height="26" as="geometry"/></mxCell><mxCell id="DtVJJxLxXrQN9yaaPmi0-71" value="ChainMail" style="swimlane;fontStyle=0;childLayout=stackLayout;horizontal=1;startSize=26;fillColor=none;horizontalStack=0;resizeParent=1;resizeParentMax=0;resizeLast=0;collapsible=1;marginBottom=0;" parent="1" vertex="1"><mxGeometry x="520" y="705.01" width="140" height="52" as="geometry"/></mxCell><mxCell id="DtVJJxLxXrQN9yaaPmi0-72" value="+ field: type" style="text;strokeColor=none;fillColor=none;align=left;verticalAlign=top;spacingLeft=4;spacingRight=4;overflow=hidden;rotatable=0;points=[[0,0.5],[1,0.5]];portConstraint=eastwest;" parent="DtVJJxLxXrQN9yaaPmi0-71" vertex="1"><mxGeometry y="26" width="140" height="26" as="geometry"/></mxCell><mxCell id="DtVJJxLxXrQN9yaaPmi0-75" value="Extends" style="endArrow=block;endSize=16;endFill=0;html=1;rounded=0;exitX=0.25;exitY=0;exitDx=0;exitDy=0;entryX=0.5;entryY=1;entryDx=0;entryDy=0;" parent="1" source="DtVJJxLxXrQN9yaaPmi0-51" target="DtVJJxLxXrQN9yaaPmi0-24" edge="1"><mxGeometry width="160" relative="1" as="geometry"><mxPoint x="356" y="414" as="sourcePoint"/><mxPoint x="516" y="414" as="targetPoint"/></mxGeometry></mxCell><mxCell id="DtVJJxLxXrQN9yaaPmi0-76" value="Extends" style="endArrow=block;endSize=16;endFill=0;html=1;rounded=0;exitX=0.5;exitY=0;exitDx=0;exitDy=0;" parent="1" source="DtVJJxLxXrQN9yaaPmi0-59" edge="1"><mxGeometry width="160" relative="1" as="geometry"><mxPoint x="340" y="505.01" as="sourcePoint"/><mxPoint x="80" y="655.01" as="targetPoint"/></mxGeometry></mxCell><mxCell id="DtVJJxLxXrQN9yaaPmi0-77" value="Extends" style="endArrow=block;endSize=16;endFill=0;html=1;rounded=0;exitX=0.457;exitY=-0.019;exitDx=0;exitDy=0;exitPerimeter=0;entryX=1;entryY=1;entryDx=0;entryDy=0;" parent="1" source="DtVJJxLxXrQN9yaaPmi0-63" target="DtVJJxLxXrQN9yaaPmi0-39" edge="1"><mxGeometry width="160" relative="1" as="geometry"><mxPoint x="350" y="515.01" as="sourcePoint"/><mxPoint x="510" y="515.01" as="targetPoint"/></mxGeometry></mxCell><mxCell id="DtVJJxLxXrQN9yaaPmi0-78" value="Extends" style="endArrow=block;endSize=16;endFill=0;html=1;rounded=0;exitX=0.5;exitY=0;exitDx=0;exitDy=0;" parent="1" source="DtVJJxLxXrQN9yaaPmi0-67" edge="1"><mxGeometry width="160" relative="1" as="geometry"><mxPoint x="360" y="525.01" as="sourcePoint"/><mxPoint x="440" y="645.01" as="targetPoint"/></mxGeometry></mxCell><mxCell id="DtVJJxLxXrQN9yaaPmi0-79" value="Extends" style="endArrow=block;endSize=16;endFill=0;html=1;rounded=0;exitX=0.564;exitY=-0.029;exitDx=0;exitDy=0;exitPerimeter=0;entryX=1;entryY=1;entryDx=0;entryDy=0;" parent="1" source="DtVJJxLxXrQN9yaaPmi0-71" target="DtVJJxLxXrQN9yaaPmi0-35" edge="1"><mxGeometry width="160" relative="1" as="geometry"><mxPoint x="370" y="535.01" as="sourcePoint"/><mxPoint x="530" y="535.01" as="targetPoint"/></mxGeometry></mxCell><mxCell id="DtVJJxLxXrQN9yaaPmi0-80" value="Extends" style="endArrow=block;endSize=16;endFill=0;html=1;rounded=0;exitX=-0.029;exitY=0.077;exitDx=0;exitDy=0;exitPerimeter=0;entryX=1;entryY=0.5;entryDx=0;entryDy=0;" parent="1" source="DtVJJxLxXrQN9yaaPmi0-56" target="DtVJJxLxXrQN9yaaPmi0-24" edge="1"><mxGeometry width="160" relative="1" as="geometry"><mxPoint x="406" y="464" as="sourcePoint"/><mxPoint x="566" y="464" as="targetPoint"/></mxGeometry></mxCell><mxCell id="DtVJJxLxXrQN9yaaPmi0-81" value="Extends" style="endArrow=block;endSize=16;endFill=0;html=1;rounded=0;exitX=-0.029;exitY=-0.115;exitDx=0;exitDy=0;exitPerimeter=0;entryX=1;entryY=0.75;entryDx=0;entryDy=0;" parent="1" source="DtVJJxLxXrQN9yaaPmi0-48" target="DtVJJxLxXrQN9yaaPmi0-20" edge="1"><mxGeometry width="160" relative="1" as="geometry"><mxPoint x="416" y="474" as="sourcePoint"/><mxPoint x="576" y="474" as="targetPoint"/></mxGeometry></mxCell><mxCell id="DtVJJxLxXrQN9yaaPmi0-82" value="Extends" style="endArrow=block;endSize=16;endFill=0;html=1;rounded=0;exitX=0;exitY=0.5;exitDx=0;exitDy=0;entryX=1;entryY=0.5;entryDx=0;entryDy=0;" parent="1" source="DtVJJxLxXrQN9yaaPmi0-43" target="DtVJJxLxXrQN9yaaPmi0-20" edge="1"><mxGeometry width="160" relative="1" as="geometry"><mxPoint x="426" y="484" as="sourcePoint"/><mxPoint x="586" y="484" as="targetPoint"/></mxGeometry></mxCell><mxCell id="DtVJJxLxXrQN9yaaPmi0-83" value="Extends" style="endArrow=block;endSize=16;endFill=0;html=1;rounded=0;exitX=0.371;exitY=0.038;exitDx=0;exitDy=0;exitPerimeter=0;entryX=0.439;entryY=1.154;entryDx=0;entryDy=0;entryPerimeter=0;" parent="1" source="DtVJJxLxXrQN9yaaPmi0-39" target="DtVJJxLxXrQN9yaaPmi0-89" edge="1"><mxGeometry width="160" relative="1" as="geometry"><mxPoint x="410" y="575.01" as="sourcePoint"/><mxPoint x="116.96000000000004" y="540" as="targetPoint"/></mxGeometry></mxCell><mxCell id="DtVJJxLxXrQN9yaaPmi0-84" value="Extends" style="endArrow=block;endSize=16;endFill=0;html=1;rounded=0;exitX=0;exitY=0;exitDx=0;exitDy=0;entryX=1.022;entryY=1;entryDx=0;entryDy=0;entryPerimeter=0;" parent="1" source="DtVJJxLxXrQN9yaaPmi0-35" target="DtVJJxLxXrQN9yaaPmi0-89" edge="1"><mxGeometry width="160" relative="1" as="geometry"><mxPoint x="420" y="500" as="sourcePoint"/><mxPoint x="350" y="450" as="targetPoint"/></mxGeometry></mxCell><mxCell id="DtVJJxLxXrQN9yaaPmi0-89" value="+ Armor(damage : int) : void" style="text;strokeColor=default;fillColor=none;align=left;verticalAlign=top;spacingLeft=4;spacingRight=4;overflow=hidden;rotatable=0;points=[[0,0.5],[1,0.5]];portConstraint=eastwest;" parent="1" vertex="1"><mxGeometry x="80" y="452" width="180" height="26" as="geometry"/></mxCell><mxCell id="DtVJJxLxXrQN9yaaPmi0-90" value="+ Weapon(damage : int) : void" style="text;strokeColor=default;fillColor=none;align=left;verticalAlign=top;spacingLeft=4;spacingRight=4;overflow=hidden;rotatable=0;points=[[0,0.5],[1,0.5]];portConstraint=eastwest;" parent="1" vertex="1"><mxGeometry x="40" y="312" width="180" height="26" as="geometry"/></mxCell><mxCell id="DtVJJxLxXrQN9yaaPmi0-93" value="public Warrior () {&lt;br&gt;super (noviceSword, new FC(), 100)&lt;br&gt;}" style="text;html=1;align=center;verticalAlign=middle;resizable=0;points=[];autosize=1;strokeColor=none;fillColor=none;" parent="1" vertex="1"><mxGeometry x="536" y="525" width="220" height="60" as="geometry"/></mxCell><mxCell id="2" value="" style="edgeStyle=orthogonalEdgeStyle;rounded=0;orthogonalLoop=1;jettySize=auto;html=1;" edge="1" parent="1" source="DtVJJxLxXrQN9yaaPmi0-92" target="DtVJJxLxXrQN9yaaPmi0-91"><mxGeometry relative="1" as="geometry"/></mxCell></root></mxGraphModel></diagram></mxfile>